<?xml version="1.0" encoding="UTF-8" standalone="no"?>
<!DOCTYPE svg PUBLIC "-//W3C//DTD SVG 1.1//EN"
 "http://www.w3.org/Graphics/SVG/1.1/DTD/svg11.dtd">
<!-- Generated by graphviz version 12.2.1 (20241206.2353)
 -->
<!-- Title: G Pages: 1 -->
<svg width="1600pt" height="683pt"
 viewBox="0.00 0.00 1600.08 683.00" xmlns="http://www.w3.org/2000/svg" xmlns:xlink="http://www.w3.org/1999/xlink">
<g id="graph0" class="graph" transform="scale(1 1) rotate(0) translate(4 679)">
<title>G</title>
<polygon fill="white" stroke="none" points="-4,4 -4,-679 1596.08,-679 1596.08,4 -4,4"/>
<!-- client__44_0.0 -->
<g id="node1" class="node">
<title>client__44_0.0</title>
<ellipse fill="none" stroke="black" cx="437" cy="-657" rx="66.19" ry="18"/>
<text text-anchor="middle" x="437" y="-651.95" font-family="Times,serif" font-size="14.00">client__44_0.0</text>
</g>
<!-- client__44_0.2 -->
<g id="node5" class="node">
<title>client__44_0.2</title>
<ellipse fill="none" stroke="black" cx="437" cy="-562.5" rx="66.19" ry="18"/>
<text text-anchor="middle" x="437" y="-557.45" font-family="Times,serif" font-size="14.00">client__44_0.2</text>
</g>
<!-- client__44_0.0&#45;&gt;client__44_0.2 -->
<g id="edge1" class="edge">
<title>client__44_0.0&#45;&gt;client__44_0.2</title>
<path fill="none" stroke="black" d="M437,-638.6C437,-625.55 437,-607.4 437,-592.21"/>
<polygon fill="black" stroke="black" points="440.5,-592.33 437,-582.33 433.5,-592.33 440.5,-592.33"/>
<text text-anchor="middle" x="477.12" y="-605.88" font-family="Times,serif" font-size="10.00">connect_rpc_app_..</text>
<text text-anchor="middle" x="357.5" y="-582.57" font-family="Times,serif" font-size="10.00">Structure(chid, x__13, rpc); rpc::conn()</text>
<text text-anchor="middle" x="365.38" y="-629.1" font-family="Times,serif" font-size="10.00">Fr x__13; Access(rpc, connect_rpc)</text>
</g>
<!-- client__44_0.4_0.0 -->
<g id="node2" class="node">
<title>client__44_0.4_0.0</title>
<ellipse fill="none" stroke="black" cx="237" cy="-373.5" rx="82.57" ry="18"/>
<text text-anchor="middle" x="237" y="-368.45" font-family="Times,serif" font-size="14.00">client__44_0.4_0.0</text>
</g>
<!-- client__44_0.6 -->
<g id="node8" class="node">
<title>client__44_0.6</title>
<ellipse fill="none" stroke="black" cx="237" cy="-279" rx="66.19" ry="18"/>
<text text-anchor="middle" x="237" y="-273.95" font-family="Times,serif" font-size="14.00">client__44_0.6</text>
</g>
<!-- client__44_0.4_0.0&#45;&gt;client__44_0.6 -->
<g id="edge2" class="edge">
<title>client__44_0.4_0.0&#45;&gt;client__44_0.6</title>
<path fill="none" stroke="black" d="M237,-355.1C237,-342.05 237,-323.9 237,-308.71"/>
<polygon fill="black" stroke="black" points="240.5,-308.83 237,-298.83 233.5,-308.83 240.5,-308.83"/>
<text text-anchor="middle" x="274.88" y="-322.38" font-family="Times,serif" font-size="10.00">get_intro_del_pu..</text>
<text text-anchor="middle" x="210.38" y="-299.07" font-family="Times,serif" font-size="10.00">c__20::exit()</text>
<text text-anchor="middle" x="118.5" y="-345.6" font-family="Times,serif" font-size="10.00">Structure(chid, cid__19, c__20); Access(c__20, close_rpc)</text>
</g>
<!-- client__44_0.3_0.8_0.0 -->
<g id="node3" class="node">
<title>client__44_0.3_0.8_0.0</title>
<ellipse fill="none" stroke="black" cx="437" cy="-101.25" rx="98.95" ry="18"/>
<text text-anchor="middle" x="437" y="-96.2" font-family="Times,serif" font-size="14.00">client__44_0.3_0.8_0.0</text>
</g>
<!-- client__44_0.3_0.12 -->
<g id="node11" class="node">
<title>client__44_0.3_0.12</title>
<ellipse fill="none" stroke="black" cx="501" cy="-18" rx="87.18" ry="18"/>
<text text-anchor="middle" x="501" y="-12.95" font-family="Times,serif" font-size="14.00">client__44_0.3_0.12</text>
</g>
<!-- client__44_0.3_0.8_0.0&#45;&gt;client__44_0.3_0.12 -->
<g id="edge3" class="edge">
<title>client__44_0.3_0.8_0.0&#45;&gt;client__44_0.3_0.12</title>
<path fill="none" stroke="black" d="M448.02,-83.16C453.96,-74.26 461.58,-63.32 469,-54 471.49,-50.88 474.18,-47.69 476.91,-44.56"/>
<polygon fill="black" stroke="black" points="479.48,-46.94 483.56,-37.16 474.27,-42.26 479.48,-46.94"/>
<text text-anchor="middle" x="509.5" y="-55.75" font-family="Times,serif" font-size="10.00">put_send_app_out..</text>
<text text-anchor="middle" x="448.2" y="-37.79" font-family="Times,serif" font-size="10.00">c__8::store(v__9)</text>
<text text-anchor="middle" x="409.02" y="-73.66" font-family="Times,serif" font-size="10.00">Access(c__8, send)</text>
</g>
<!-- client__44_0.3_0.3_0.1 -->
<g id="node4" class="node">
<title>client__44_0.3_0.3_0.1</title>
<ellipse fill="none" stroke="black" cx="437" cy="-373.5" rx="98.95" ry="18"/>
<text text-anchor="middle" x="437" y="-368.45" font-family="Times,serif" font-size="14.00">client__44_0.3_0.3_0.1</text>
</g>
<!-- client__44_0.3_0.3_0.2 -->
<g id="node6" class="node">
<title>client__44_0.3_0.3_0.2</title>
<ellipse fill="none" stroke="black" cx="437" cy="-279" rx="98.95" ry="18"/>
<text text-anchor="middle" x="437" y="-273.95" font-family="Times,serif" font-size="14.00">client__44_0.3_0.3_0.2</text>
</g>
<!-- client__44_0.3_0.3_0.1&#45;&gt;client__44_0.3_0.3_0.2 -->
<g id="edge4" class="edge">
<title>client__44_0.3_0.3_0.1&#45;&gt;client__44_0.3_0.3_0.2</title>
<path fill="none" stroke="black" d="M437,-355.1C437,-342.05 437,-323.9 437,-308.71"/>
<polygon fill="black" stroke="black" points="440.5,-308.83 437,-298.83 433.5,-308.83 440.5,-308.83"/>
<text text-anchor="middle" x="456.5" y="-328" font-family="Times,serif" font-size="10.00">put__77;</text>
<text text-anchor="middle" x="456.5" y="-316.75" font-family="Times,serif" font-size="10.00">rho__76..</text>
<text text-anchor="middle" x="370.25" y="-299.07" font-family="Times,serif" font-size="10.00">c__17::invoke(f__15, arg1__16)</text>
<text text-anchor="middle" x="381.5" y="-345.6" font-family="Times,serif" font-size="10.00">Access(c__17, invoke_rpc)</text>
</g>
<!-- client__44_0.3 -->
<g id="node7" class="node">
<title>client__44_0.3</title>
<ellipse fill="none" stroke="black" cx="437" cy="-468" rx="66.19" ry="18"/>
<text text-anchor="middle" x="437" y="-462.95" font-family="Times,serif" font-size="14.00">client__44_0.3</text>
</g>
<!-- client__44_0.2&#45;&gt;client__44_0.3 -->
<g id="edge5" class="edge">
<title>client__44_0.2&#45;&gt;client__44_0.3</title>
<path fill="none" stroke="black" d="M437,-544.1C437,-531.05 437,-512.9 437,-497.71"/>
<polygon fill="black" stroke="black" points="440.5,-497.83 437,-487.83 433.5,-497.83 440.5,-497.83"/>
<text text-anchor="middle" x="470.75" y="-517" font-family="Times,serif" font-size="10.00">repeat_in__123;</text>
<text text-anchor="middle" x="470.75" y="-505.75" font-family="Times,serif" font-size="10.00">..</text>
</g>
<!-- client__44_0.3_0.7 -->
<g id="node9" class="node">
<title>client__44_0.3_0.7</title>
<ellipse fill="none" stroke="black" cx="437" cy="-184.5" rx="82.57" ry="18"/>
<text text-anchor="middle" x="437" y="-179.45" font-family="Times,serif" font-size="14.00">client__44_0.3_0.7</text>
</g>
<!-- client__44_0.3_0.3_0.2&#45;&gt;client__44_0.3_0.7 -->
<g id="edge6" class="edge">
<title>client__44_0.3_0.3_0.2&#45;&gt;client__44_0.3_0.7</title>
<path fill="none" stroke="black" stroke-width="2" d="M437,-260.6C437,-247.55 437,-229.4 437,-214.21"/>
<polygon fill="black" stroke="black" stroke-width="2" points="440.5,-215.85 437,-205.85 433.5,-215.85 440.5,-215.85"/>
<text text-anchor="middle" x="474.12" y="-227.88" font-family="Times,serif" font-size="10.00">case_in_return_c..</text>
<text text-anchor="middle" x="410" y="-204.57" font-family="Times,serif" font-size="10.00">::Out(v__18)</text>
<text text-anchor="middle" x="328.62" y="-251.1" font-family="Times,serif" font-size="10.00">c__17::Returned(v__18); Access(c__17, invoke_rpc)</text>
</g>
<!-- client__44_0.3&#45;&gt;client__44_0.4_0.0 -->
<g id="edge7" class="edge">
<title>client__44_0.3&#45;&gt;client__44_0.4_0.0</title>
<path fill="none" stroke="black" d="M402.74,-452.25C388.61,-446.1 372.09,-438.8 357.25,-432 331.35,-420.13 302.54,-406.37 279.62,-395.29"/>
<polygon fill="black" stroke="black" points="281.42,-392.28 270.89,-391.07 278.37,-398.58 281.42,-392.28"/>
<text text-anchor="middle" x="395.12" y="-416.88" font-family="Times,serif" font-size="10.00">until_in_skip_un..</text>
</g>
<!-- client__44_0.3&#45;&gt;client__44_0.3_0.3_0.1 -->
<g id="edge8" class="edge">
<title>client__44_0.3&#45;&gt;client__44_0.3_0.3_0.1</title>
<path fill="none" stroke="black" stroke-width="2" d="M437,-449.6C437,-436.55 437,-418.4 437,-403.21"/>
<polygon fill="black" stroke="black" stroke-width="2" points="440.5,-404.85 437,-394.85 433.5,-404.85 440.5,-404.85"/>
<text text-anchor="middle" x="475.62" y="-416.88" font-family="Times,serif" font-size="10.00">case_in_new_intr..</text>
<text text-anchor="middle" x="329.38" y="-393.57" font-family="Times,serif" font-size="10.00">::Out(image__34); Structure(chid, conn__33, c__17)</text>
<text text-anchor="middle" x="338" y="-440.1" font-family="Times,serif" font-size="10.00">Fr image__34; Structure(chid, conn__33, c__17)</text>
</g>
<!-- client__44_0.8 -->
<g id="node10" class="node">
<title>client__44_0.8</title>
<ellipse fill="none" stroke="black" cx="237" cy="-184.5" rx="66.19" ry="18"/>
<text text-anchor="middle" x="237" y="-179.45" font-family="Times,serif" font-size="14.00">client__44_0.8</text>
</g>
<!-- client__44_0.6&#45;&gt;client__44_0.8 -->
<g id="edge9" class="edge">
<title>client__44_0.6&#45;&gt;client__44_0.8</title>
<path fill="none" stroke="black" d="M237,-260.6C237,-247.55 237,-229.4 237,-214.21"/>
<polygon fill="black" stroke="black" points="240.5,-214.33 237,-204.33 233.5,-214.33 240.5,-214.33"/>
<text text-anchor="middle" x="273.75" y="-227.88" font-family="Times,serif" font-size="10.00">event_let_exit_c..</text>
</g>
<!-- client__44_0.3_0.7&#45;&gt;client__44_0.3_0.8_0.0 -->
<g id="edge10" class="edge">
<title>client__44_0.3_0.7&#45;&gt;client__44_0.3_0.8_0.0</title>
<path fill="none" stroke="black" d="M437,-166.27C437,-156 437,-142.7 437,-130.89"/>
<polygon fill="black" stroke="black" points="440.5,-131.25 437,-121.25 433.5,-131.25 440.5,-131.25"/>
<text text-anchor="middle" x="476.75" y="-139" font-family="Times,serif" font-size="10.00">event_send_app_i..</text>
</g>
<!-- client__44_0.3_0.12&#45;&gt;client__44_0.3 -->
<g id="edge11" class="edge">
<title>client__44_0.3_0.12&#45;&gt;client__44_0.3</title>
<path fill="none" stroke="black" stroke-dasharray="5,2" d="M530.45,-35.32C537.68,-40.5 544.82,-46.78 550,-54 562.52,-71.45 564,-78.77 564,-100.25 564,-374.5 564,-374.5 564,-374.5 564,-412.32 526.74,-436.31 492.59,-450.35"/>
<polygon fill="black" stroke="black" points="491.61,-446.98 483.54,-453.85 494.13,-453.51 491.61,-446.98"/>
<text text-anchor="middle" x="595.88" y="-233.5" font-family="Times,serif" font-size="10.00">case_out__119;</text>
<text text-anchor="middle" x="595.88" y="-222.25" font-family="Times,serif" font-size="10.00">r..</text>
</g>
<!-- client_ta__48_0.0 -->
<g id="node12" class="node">
<title>client_ta__48_0.0</title>
<ellipse fill="none" stroke="black" cx="678" cy="-657" rx="77.45" ry="18"/>
<text text-anchor="middle" x="678" y="-651.95" font-family="Times,serif" font-size="14.00">client_ta__48_0.0</text>
</g>
<!-- client_ta__48_0.1 -->
<g id="node13" class="node">
<title>client_ta__48_0.1</title>
<ellipse fill="none" stroke="black" cx="678" cy="-562.5" rx="77.45" ry="18"/>
<text text-anchor="middle" x="678" y="-557.45" font-family="Times,serif" font-size="14.00">client_ta__48_0.1</text>
</g>
<!-- client_ta__48_0.0&#45;&gt;client_ta__48_0.1 -->
<g id="edge12" class="edge">
<title>client_ta__48_0.0&#45;&gt;client_ta__48_0.1</title>
<path fill="none" stroke="black" d="M678,-638.6C678,-625.55 678,-607.4 678,-592.21"/>
<polygon fill="black" stroke="black" points="681.5,-592.33 678,-582.33 674.5,-592.33 681.5,-592.33"/>
<text text-anchor="middle" x="711.75" y="-611.5" font-family="Times,serif" font-size="10.00">repeat_in__228;</text>
<text text-anchor="middle" x="711.75" y="-600.25" font-family="Times,serif" font-size="10.00">..</text>
</g>
<!-- client_ta__48_0.1_0.1 -->
<g id="node14" class="node">
<title>client_ta__48_0.1_0.1</title>
<ellipse fill="none" stroke="black" cx="627" cy="-468" rx="93.83" ry="18"/>
<text text-anchor="middle" x="627" y="-462.95" font-family="Times,serif" font-size="14.00">client_ta__48_0.1_0.1</text>
</g>
<!-- client_ta__48_0.1&#45;&gt;client_ta__48_0.1_0.1 -->
<g id="edge13" class="edge">
<title>client_ta__48_0.1&#45;&gt;client_ta__48_0.1_0.1</title>
<path fill="none" stroke="black" d="M609.62,-553.65C575.71,-548.2 539.82,-539.53 529.5,-526.5 515.57,-508.91 533.47,-495.57 557.57,-486.19"/>
<polygon fill="black" stroke="black" points="558.52,-489.56 566.77,-482.92 556.18,-482.97 558.52,-489.56"/>
<text text-anchor="middle" x="567.75" y="-511.38" font-family="Times,serif" font-size="10.00">case_in_case_in_..</text>
<text text-anchor="middle" x="649.58" y="-484.16" font-family="Times,serif" font-size="10.00">rpc::Returned(sign(image__38, priv_k))</text>
<text text-anchor="middle" x="800.87" y="-544.15" font-family="Times,serif" font-size="10.00">rpc::invoke(fname__37, image__38); Access(rpc, .); fname__37 = &quot;sign_image&quot;; Access(rpc, .)</text>
</g>
<!-- client_ta__48_0.1&#45;&gt;client_ta__48_0.1_0.1 -->
<g id="edge14" class="edge">
<title>client_ta__48_0.1&#45;&gt;client_ta__48_0.1_0.1</title>
<path fill="none" stroke="black" d="M647.09,-545.54C640.13,-540.43 633.59,-534.09 629.5,-526.5 624.81,-517.81 623.37,-507.26 623.37,-497.58"/>
<polygon fill="black" stroke="black" points="626.85,-498.07 623.88,-487.9 619.86,-497.71 626.85,-498.07"/>
<text text-anchor="middle" x="667.75" y="-511.38" font-family="Times,serif" font-size="10.00">case_in_case_in_..</text>
<text text-anchor="middle" x="483.59" y="-536.04" font-family="Times,serif" font-size="10.00">rpc::invoke(fname__37, image__38); Access(rpc, .); fname__37 != &quot;sign_image&quot;</text>
</g>
<!-- client_ta__48_0.2 -->
<g id="node15" class="node">
<title>client_ta__48_0.2</title>
<ellipse fill="none" stroke="black" cx="816" cy="-468" rx="77.45" ry="18"/>
<text text-anchor="middle" x="816" y="-462.95" font-family="Times,serif" font-size="14.00">client_ta__48_0.2</text>
</g>
<!-- client_ta__48_0.1&#45;&gt;client_ta__48_0.2 -->
<g id="edge15" class="edge">
<title>client_ta__48_0.1&#45;&gt;client_ta__48_0.2</title>
<path fill="none" stroke="black" d="M733.5,-549.54C749.31,-544.3 765.8,-536.88 779,-526.5 789.08,-518.58 797.24,-507.1 803.3,-496.49"/>
<polygon fill="black" stroke="black" points="806.39,-498.14 807.96,-487.66 800.2,-494.87 806.39,-498.14"/>
<text text-anchor="middle" x="836.42" y="-511.38" font-family="Times,serif" font-size="10.00">until_in_skip_un..</text>
<text text-anchor="middle" x="783" y="-551.29" font-family="Times,serif" font-size="10.00">rpc::exit(); Access(rpc, .)</text>
</g>
<!-- client_ta__48_0.1_0.1&#45;&gt;client_ta__48_0.1 -->
<g id="edge16" class="edge">
<title>client_ta__48_0.1_0.1&#45;&gt;client_ta__48_0.1</title>
<path fill="none" stroke="black" stroke-dasharray="5,2" d="M681.24,-483.01C691.04,-488.03 700.03,-494.82 706,-504 712.38,-513.8 708.77,-525.27 702.31,-535.38"/>
<polygon fill="black" stroke="black" points="699.55,-533.23 696.38,-543.34 705.16,-537.41 699.55,-533.23"/>
<text text-anchor="middle" x="741.95" y="-517" font-family="Times,serif" font-size="10.00">case_out__224;</text>
<text text-anchor="middle" x="741.95" y="-505.75" font-family="Times,serif" font-size="10.00">r..</text>
</g>
<!-- client_ta__48_0.3 -->
<g id="node16" class="node">
<title>client_ta__48_0.3</title>
<ellipse fill="none" stroke="black" cx="816" cy="-373.5" rx="77.45" ry="18"/>
<text text-anchor="middle" x="816" y="-368.45" font-family="Times,serif" font-size="14.00">client_ta__48_0.3</text>
</g>
<!-- client_ta__48_0.2&#45;&gt;client_ta__48_0.3 -->
<g id="edge17" class="edge">
<title>client_ta__48_0.2&#45;&gt;client_ta__48_0.3</title>
<path fill="none" stroke="black" d="M816,-449.6C816,-436.55 816,-418.4 816,-403.21"/>
<polygon fill="black" stroke="black" points="819.5,-403.33 816,-393.33 812.5,-403.33 819.5,-403.33"/>
<text text-anchor="middle" x="841.88" y="-422.5" font-family="Times,serif" font-size="10.00">event__230;</text>
<text text-anchor="middle" x="841.88" y="-411.25" font-family="Times,serif" font-size="10.00">rho_..</text>
</g>
<!-- server__46_0.0 -->
<g id="node17" class="node">
<title>server__46_0.0</title>
<ellipse fill="none" stroke="black" cx="1270" cy="-657" rx="68.24" ry="18"/>
<text text-anchor="middle" x="1270" y="-651.95" font-family="Times,serif" font-size="14.00">server__46_0.0</text>
</g>
<!-- server__46_0.1 -->
<g id="node19" class="node">
<title>server__46_0.1</title>
<ellipse fill="none" stroke="black" cx="1270" cy="-562.5" rx="68.24" ry="18"/>
<text text-anchor="middle" x="1270" y="-557.45" font-family="Times,serif" font-size="14.00">server__46_0.1</text>
</g>
<!-- server__46_0.0&#45;&gt;server__46_0.1 -->
<g id="edge18" class="edge">
<title>server__46_0.0&#45;&gt;server__46_0.1</title>
<path fill="none" stroke="black" d="M1270,-638.6C1270,-625.55 1270,-607.4 1270,-592.21"/>
<polygon fill="black" stroke="black" points="1273.5,-592.33 1270,-582.33 1266.5,-592.33 1273.5,-592.33"/>
<text text-anchor="middle" x="1303.75" y="-611.5" font-family="Times,serif" font-size="10.00">repeat_in__198;</text>
<text text-anchor="middle" x="1303.75" y="-600.25" font-family="Times,serif" font-size="10.00">..</text>
</g>
<!-- server__46_0.1_0.0_0.0 -->
<g id="node18" class="node">
<title>server__46_0.1_0.0_0.0</title>
<ellipse fill="none" stroke="black" cx="1012" cy="-468" rx="101" ry="18"/>
<text text-anchor="middle" x="1012" y="-462.95" font-family="Times,serif" font-size="14.00">server__46_0.1_0.0_0.0</text>
</g>
<!-- server__46_0.1_0.4 -->
<g id="node21" class="node">
<title>server__46_0.1_0.4</title>
<ellipse fill="none" stroke="black" cx="1339" cy="-373.5" rx="84.62" ry="18"/>
<text text-anchor="middle" x="1339" y="-368.45" font-family="Times,serif" font-size="14.00">server__46_0.1_0.4</text>
</g>
<!-- server__46_0.1_0.0_0.0&#45;&gt;server__46_0.1_0.4 -->
<g id="edge19" class="edge">
<title>server__46_0.1_0.0_0.0&#45;&gt;server__46_0.1_0.4</title>
<path fill="none" stroke="black" d="M1064.18,-452.24C1122.61,-435.71 1217.16,-408.97 1278.71,-391.56"/>
<polygon fill="black" stroke="black" points="1279.29,-395.03 1287.96,-388.94 1277.39,-388.29 1279.29,-395.03"/>
<text text-anchor="middle" x="1251.53" y="-416.88" font-family="Times,serif" font-size="10.00">case_in_return_c..</text>
<text text-anchor="middle" x="980.18" y="-442.74" font-family="Times,serif" font-size="10.00">c__10::store(v__11); Access(c__10, recv)</text>
</g>
<!-- server__46_0.1&#45;&gt;server__46_0.1_0.0_0.0 -->
<g id="edge20" class="edge">
<title>server__46_0.1&#45;&gt;server__46_0.1_0.0_0.0</title>
<path fill="none" stroke="black" d="M1221.04,-549.6C1197.5,-543.45 1169.03,-535.38 1144,-526.5 1114.21,-515.93 1081.65,-501.78 1056.32,-490.16"/>
<polygon fill="black" stroke="black" points="1057.85,-487.01 1047.31,-485.99 1054.91,-493.36 1057.85,-487.01"/>
<text text-anchor="middle" x="1183" y="-511.38" font-family="Times,serif" font-size="10.00">case_in_recv_app..</text>
</g>
<!-- server__46_0.2 -->
<g id="node20" class="node">
<title>server__46_0.2</title>
<ellipse fill="none" stroke="black" cx="1199" cy="-468" rx="68.24" ry="18"/>
<text text-anchor="middle" x="1199" y="-462.95" font-family="Times,serif" font-size="14.00">server__46_0.2</text>
</g>
<!-- server__46_0.1&#45;&gt;server__46_0.2 -->
<g id="edge21" class="edge">
<title>server__46_0.1&#45;&gt;server__46_0.2</title>
<path fill="none" stroke="black" d="M1256.98,-544.53C1246.27,-530.58 1230.92,-510.59 1218.71,-494.68"/>
<polygon fill="black" stroke="black" points="1221.73,-492.86 1212.86,-487.06 1216.17,-497.12 1221.73,-492.86"/>
<text text-anchor="middle" x="1280.82" y="-511.38" font-family="Times,serif" font-size="10.00">until_in_skip_un..</text>
<text text-anchor="middle" x="1240.48" y="-535.03" font-family="Times,serif" font-size="10.00">::False()</text>
</g>
<!-- server__46_0.1_0.0_1.0 -->
<g id="node23" class="node">
<title>server__46_0.1_0.0_1.0</title>
<ellipse fill="none" stroke="black" cx="1386" cy="-468" rx="101" ry="18"/>
<text text-anchor="middle" x="1386" y="-462.95" font-family="Times,serif" font-size="14.00">server__46_0.1_0.0_1.0</text>
</g>
<!-- server__46_0.1&#45;&gt;server__46_0.1_0.0_1.0 -->
<g id="edge22" class="edge">
<title>server__46_0.1&#45;&gt;server__46_0.1_0.0_1.0</title>
<path fill="none" stroke="black" stroke-width="2" d="M1294.28,-545.27C1302.58,-539.53 1311.82,-532.9 1320,-526.5 1333.16,-516.2 1347.2,-504.14 1358.92,-493.73"/>
<polygon fill="black" stroke="black" stroke-width="2" points="1360.02,-497.45 1365.13,-488.17 1355.35,-492.24 1360.02,-497.45"/>
<text text-anchor="middle" x="1384.97" y="-511.38" font-family="Times,serif" font-size="10.00">case_in_tamper_c..</text>
</g>
<!-- server__46_0.1_0.7 -->
<g id="node22" class="node">
<title>server__46_0.1_0.7</title>
<ellipse fill="none" stroke="black" cx="1423" cy="-279" rx="84.62" ry="18"/>
<text text-anchor="middle" x="1423" y="-273.95" font-family="Times,serif" font-size="14.00">server__46_0.1_0.7</text>
</g>
<!-- server__46_0.1_0.4&#45;&gt;server__46_0.1_0.7 -->
<g id="edge23" class="edge">
<title>server__46_0.1_0.4&#45;&gt;server__46_0.1_0.7</title>
<path fill="none" stroke="black" d="M1327.44,-355.31C1320.82,-343.12 1315.34,-326.89 1323.75,-315 1329.62,-306.71 1337.61,-300.37 1346.54,-295.52"/>
<polygon fill="black" stroke="black" points="1348,-298.71 1355.58,-291.3 1345.04,-292.36 1348,-298.71"/>
<text text-anchor="middle" x="1362.38" y="-322.38" font-family="Times,serif" font-size="10.00">case_in_event_ca..</text>
<text text-anchor="middle" x="1298.19" y="-345.81" font-family="Times,serif" font-size="10.00">res__42 = true</text>
</g>
<!-- server__46_0.1_0.4&#45;&gt;server__46_0.1_0.7 -->
<g id="edge24" class="edge">
<title>server__46_0.1_0.4&#45;&gt;server__46_0.1_0.7</title>
<path fill="none" stroke="black" d="M1376.18,-356.98C1385.22,-351.84 1394.22,-345.37 1401,-337.5 1408.15,-329.2 1413.1,-318.34 1416.46,-308.29"/>
<polygon fill="black" stroke="black" points="1419.76,-309.51 1419.2,-298.93 1413.04,-307.54 1419.76,-309.51"/>
<text text-anchor="middle" x="1452.25" y="-322.38" font-family="Times,serif" font-size="10.00">case_in_event_ca..</text>
<text text-anchor="middle" x="1406.93" y="-347.48" font-family="Times,serif" font-size="10.00">res__42 != true</text>
</g>
<!-- server__46_0.1_0.7&#45;&gt;server__46_0.1 -->
<g id="edge25" class="edge">
<title>server__46_0.1_0.7&#45;&gt;server__46_0.1</title>
<path fill="none" stroke="black" stroke-dasharray="5,2" d="M1471,-294.13C1480.5,-299.18 1489.29,-305.95 1495,-315 1556.73,-412.84 1512.85,-456.35 1496,-486 1478.62,-516.58 1460.7,-513.53 1428,-526.5 1400.11,-537.56 1368,-545.48 1340.03,-550.96"/>
<polygon fill="black" stroke="black" points="1339.4,-547.52 1330.22,-552.81 1340.7,-554.4 1339.4,-547.52"/>
<text text-anchor="middle" x="1559.45" y="-422.5" font-family="Times,serif" font-size="10.00">case_out__194;</text>
<text text-anchor="middle" x="1559.45" y="-411.25" font-family="Times,serif" font-size="10.00">r..</text>
</g>
<!-- server__46_0.1_0.0_1.0&#45;&gt;server__46_0.1_0.4 -->
<g id="edge26" class="edge">
<title>server__46_0.1_0.0_1.0&#45;&gt;server__46_0.1_0.4</title>
<path fill="none" stroke="black" d="M1377.16,-449.6C1370.33,-436.16 1360.76,-417.32 1352.91,-401.87"/>
<polygon fill="black" stroke="black" points="1356.14,-400.5 1348.49,-393.17 1349.9,-403.67 1356.14,-400.5"/>
<text text-anchor="middle" x="1405.22" y="-416.88" font-family="Times,serif" font-size="10.00">case_in_return_c..</text>
<text text-anchor="middle" x="1266.53" y="-440.1" font-family="Times,serif" font-size="10.00">c__27::store(j__28); ::In(w__29); Access(c__27, recv)</text>
</g>
</g>
</svg>
