<?xml version="1.0" encoding="UTF-8" standalone="no"?>
<!DOCTYPE svg PUBLIC "-//W3C//DTD SVG 1.1//EN"
 "http://www.w3.org/Graphics/SVG/1.1/DTD/svg11.dtd">
<!-- Generated by graphviz version 12.2.1 (20241206.2353)
 -->
<!-- Title: G Pages: 1 -->
<svg width="1910pt" height="694pt"
 viewBox="0.00 0.00 1910.10 694.25" xmlns="http://www.w3.org/2000/svg" xmlns:xlink="http://www.w3.org/1999/xlink">
<g id="graph0" class="graph" transform="scale(1 1) rotate(0) translate(4 690.25)">
<title>G</title>
<polygon fill="white" stroke="none" points="-4,4 -4,-690.25 1906.1,-690.25 1906.1,4 -4,4"/>
<!-- Client_idx_0 -->
<g id="node1" class="node">
<title>Client_idx_0</title>
<ellipse fill="none" stroke="black" cx="594.54" cy="-668.25" rx="59.03" ry="18"/>
<text text-anchor="middle" x="594.54" y="-663.2" font-family="Times,serif" font-size="14.00">Client_idx_0</text>
</g>
<!-- Client_idx_1__0_2 -->
<g id="node7" class="node">
<title>Client_idx_1__0_2</title>
<ellipse fill="none" stroke="black" cx="594.54" cy="-573.75" rx="82.06" ry="18"/>
<text text-anchor="middle" x="594.54" y="-568.7" font-family="Times,serif" font-size="14.00">Client_idx_1__0_2</text>
</g>
<!-- Client_idx_0&#45;&gt;Client_idx_1__0_2 -->
<g id="edge1" class="edge">
<title>Client_idx_0&#45;&gt;Client_idx_1__0_2</title>
<path fill="none" stroke="black" d="M594.54,-649.85C594.54,-636.8 594.54,-618.65 594.54,-603.46"/>
<polygon fill="black" stroke="black" points="598.04,-603.58 594.54,-593.58 591.04,-603.58 598.04,-603.58"/>
<text text-anchor="middle" x="629.04" y="-617.12" font-family="Times,serif" font-size="10.00">let_intro_scall_..</text>
<text text-anchor="middle" x="475.29" y="-593.82" font-family="Times,serif" font-size="10.00">Structure(&lt;&#39;Client&#39;, param&gt;, &#39;chid&#39;, n_0_2, &#39;rpc&#39;); Conn(&#39;rpc&#39;)</text>
<text text-anchor="middle" x="480.92" y="-640.35" font-family="Times,serif" font-size="10.00">!ACP_(&lt;&#39;Client&#39;, param&gt;, &#39;rpc&#39;, &#39;connect_rpc&#39;); Fr(n_0_2)</text>
</g>
<!-- Client_idx_3 -->
<g id="node2" class="node">
<title>Client_idx_3</title>
<ellipse fill="none" stroke="black" cx="594.54" cy="-479.25" rx="59.03" ry="18"/>
<text text-anchor="middle" x="594.54" y="-474.2" font-family="Times,serif" font-size="14.00">Client_idx_3</text>
</g>
<!-- Client_idx_4 -->
<g id="node3" class="node">
<title>Client_idx_4</title>
<ellipse fill="none" stroke="black" cx="401.54" cy="-373.5" rx="59.03" ry="18"/>
<text text-anchor="middle" x="401.54" y="-368.45" font-family="Times,serif" font-size="14.00">Client_idx_4</text>
</g>
<!-- Client_idx_3&#45;&gt;Client_idx_4 -->
<g id="edge2" class="edge">
<title>Client_idx_3&#45;&gt;Client_idx_4</title>
<path fill="none" stroke="black" d="M559.29,-464.57C544.61,-458.53 527.52,-451.03 512.54,-443.25 485.33,-429.12 455.88,-410.72 434.16,-396.52"/>
<polygon fill="black" stroke="black" points="436.3,-393.73 426.02,-391.15 432.44,-399.58 436.3,-393.73"/>
<text text-anchor="middle" x="551.54" y="-422.5" font-family="Times,serif" font-size="10.00">guarded_skip_rep..</text>
</g>
<!-- Client_idx_3__0_1__0_1 -->
<g id="node5" class="node">
<title>Client_idx_3__0_1__0_1</title>
<ellipse fill="none" stroke="black" cx="594.54" cy="-373.5" rx="105.09" ry="18"/>
<text text-anchor="middle" x="594.54" y="-368.45" font-family="Times,serif" font-size="14.00">Client_idx_3__0_1__0_1</text>
</g>
<!-- Client_idx_3&#45;&gt;Client_idx_3__0_1__0_1 -->
<g id="edge3" class="edge">
<title>Client_idx_3&#45;&gt;Client_idx_3__0_1__0_1</title>
<path fill="none" stroke="black" d="M594.54,-461.12C594.54,-445.35 594.54,-421.65 594.54,-403.03"/>
<polygon fill="black" stroke="black" points="598.04,-403.17 594.54,-393.17 591.04,-403.17 598.04,-403.17"/>
<text text-anchor="middle" x="634.29" y="-422.5" font-family="Times,serif" font-size="10.00">guarded_new_intr..</text>
<text text-anchor="middle" x="570.54" y="-393.41" font-family="Times,serif" font-size="10.00">Out(n_0_9)</text>
<text text-anchor="middle" x="574.29" y="-451.62" font-family="Times,serif" font-size="10.00">Fr(n_0_9)</text>
</g>
<!-- Client_idx_4__0_3 -->
<g id="node9" class="node">
<title>Client_idx_4__0_3</title>
<ellipse fill="none" stroke="black" cx="389.54" cy="-290.25" rx="82.06" ry="18"/>
<text text-anchor="middle" x="389.54" y="-285.2" font-family="Times,serif" font-size="14.00">Client_idx_4__0_3</text>
</g>
<!-- Client_idx_4&#45;&gt;Client_idx_4__0_3 -->
<g id="edge4" class="edge">
<title>Client_idx_4&#45;&gt;Client_idx_4__0_3</title>
<path fill="none" stroke="black" d="M399,-355.27C397.48,-345 395.52,-331.7 393.77,-319.89"/>
<polygon fill="black" stroke="black" points="397.27,-319.61 392.35,-310.23 390.35,-320.64 397.27,-319.61"/>
<text text-anchor="middle" x="431.89" y="-328" font-family="Times,serif" font-size="10.00">scall_intro_get_..</text>
<text text-anchor="middle" x="364.75" y="-310.49" font-family="Times,serif" font-size="10.00">Exit(n_0_36)</text>
<text text-anchor="middle" x="199.5" y="-345.77" font-family="Times,serif" font-size="10.00">Structure(&lt;&#39;Client&#39;, param&gt;, &#39;chid&#39;, l_0_35, n_0_36); !ACP_(&lt;&#39;Client&#39;, param&gt;, n_0_36, &#39;close_rpc&#39;)</text>
</g>
<!-- Client_idx_7 -->
<g id="node4" class="node">
<title>Client_idx_7</title>
<ellipse fill="none" stroke="black" cx="389.54" cy="-184.5" rx="59.03" ry="18"/>
<text text-anchor="middle" x="389.54" y="-179.45" font-family="Times,serif" font-size="14.00">Client_idx_7</text>
</g>
<!-- Client_idx_3__0_3__0_2 -->
<g id="node8" class="node">
<title>Client_idx_3__0_3__0_2</title>
<ellipse fill="none" stroke="black" cx="594.54" cy="-290.25" rx="105.09" ry="18"/>
<text text-anchor="middle" x="594.54" y="-285.2" font-family="Times,serif" font-size="14.00">Client_idx_3__0_3__0_2</text>
</g>
<!-- Client_idx_3__0_1__0_1&#45;&gt;Client_idx_3__0_3__0_2 -->
<g id="edge5" class="edge">
<title>Client_idx_3__0_1__0_1&#45;&gt;Client_idx_3__0_3__0_2</title>
<path fill="none" stroke="black" d="M594.54,-355.27C594.54,-345 594.54,-331.7 594.54,-319.89"/>
<polygon fill="black" stroke="black" points="598.04,-320.25 594.54,-310.25 591.04,-320.25 598.04,-320.25"/>
<text text-anchor="middle" x="630.17" y="-328" font-family="Times,serif" font-size="10.00">scall_out_let_in..</text>
<text text-anchor="middle" x="780.54" y="-310.49" font-family="Times,serif" font-size="10.00">Structure(&lt;&#39;Client&#39;, param&gt;, &#39;chid&#39;, l_1_12, n_0_15); Invoke(n_0_15, &#39;sign_image&#39;, m_0_12)</text>
<text text-anchor="middle" x="797.79" y="-345.77" font-family="Times,serif" font-size="10.00">Structure(&lt;&#39;Client&#39;, param&gt;, &#39;chid&#39;, l_1_12, n_0_15); !ACP_(&lt;&#39;Client&#39;, param&gt;, n_0_15, &#39;invoke_rpc&#39;)</text>
</g>
<!-- Client_idx_3__0_4__0_1 -->
<g id="node6" class="node">
<title>Client_idx_3__0_4__0_1</title>
<ellipse fill="none" stroke="black" cx="594.54" cy="-184.5" rx="105.09" ry="18"/>
<text text-anchor="middle" x="594.54" y="-179.45" font-family="Times,serif" font-size="14.00">Client_idx_3__0_4__0_1</text>
</g>
<!-- Client_idx_3__0_6 -->
<g id="node10" class="node">
<title>Client_idx_3__0_6</title>
<ellipse fill="none" stroke="black" cx="611.54" cy="-101.25" rx="82.06" ry="18"/>
<text text-anchor="middle" x="611.54" y="-96.2" font-family="Times,serif" font-size="14.00">Client_idx_3__0_6</text>
</g>
<!-- Client_idx_3__0_4__0_1&#45;&gt;Client_idx_3__0_6 -->
<g id="edge6" class="edge">
<title>Client_idx_3__0_4__0_1&#45;&gt;Client_idx_3__0_6</title>
<path fill="none" stroke="black" d="M598.15,-166.27C600.31,-155.93 603.12,-142.52 605.6,-130.65"/>
<polygon fill="black" stroke="black" points="609.01,-131.44 607.63,-120.94 602.16,-130.01 609.01,-131.44"/>
<text text-anchor="middle" x="640.44" y="-139" font-family="Times,serif" font-size="10.00">scall_out_event;..</text>
</g>
<!-- Client_idx_1__0_2&#45;&gt;Client_idx_3 -->
<g id="edge7" class="edge">
<title>Client_idx_1__0_2&#45;&gt;Client_idx_3</title>
<path fill="none" stroke="black" d="M594.54,-555.35C594.54,-542.3 594.54,-524.15 594.54,-508.96"/>
<polygon fill="black" stroke="black" points="598.04,-509.08 594.54,-499.08 591.04,-509.08 598.04,-509.08"/>
<text text-anchor="middle" x="633.92" y="-522.62" font-family="Times,serif" font-size="10.00">return_new_out_s..</text>
</g>
<!-- Client_idx_3__0_3__0_2&#45;&gt;Client_idx_3__0_4__0_1 -->
<g id="edge8" class="edge">
<title>Client_idx_3__0_3__0_2&#45;&gt;Client_idx_3__0_4__0_1</title>
<path fill="none" stroke="black" d="M594.54,-272.12C594.54,-256.35 594.54,-232.65 594.54,-214.03"/>
<polygon fill="black" stroke="black" points="598.04,-214.17 594.54,-204.17 591.04,-214.17 598.04,-214.17"/>
<text text-anchor="middle" x="632.79" y="-233.5" font-family="Times,serif" font-size="10.00">guarded_return_c..</text>
<text text-anchor="middle" x="567.92" y="-204.41" font-family="Times,serif" font-size="10.00">Out(n_0_17)</text>
<text text-anchor="middle" x="437.42" y="-262.62" font-family="Times,serif" font-size="10.00">!ACP_(&lt;&#39;Client&#39;, param&gt;, m_0_17, &#39;invoke_rpc&#39;); Returned(m_0_17, n_0_17)</text>
</g>
<!-- Client_idx_4__0_3&#45;&gt;Client_idx_7 -->
<g id="edge9" class="edge">
<title>Client_idx_4__0_3&#45;&gt;Client_idx_7</title>
<path fill="none" stroke="black" d="M389.54,-272.12C389.54,-256.35 389.54,-232.65 389.54,-214.03"/>
<polygon fill="black" stroke="black" points="393.04,-214.17 389.54,-204.17 386.04,-214.17 393.04,-214.17"/>
<text text-anchor="middle" x="427.42" y="-233.5" font-family="Times,serif" font-size="10.00">get_out_scall_ou..</text>
</g>
<!-- Client_idx_3__0_9 -->
<g id="node11" class="node">
<title>Client_idx_3__0_9</title>
<ellipse fill="none" stroke="black" cx="669.54" cy="-18" rx="82.06" ry="18"/>
<text text-anchor="middle" x="669.54" y="-12.95" font-family="Times,serif" font-size="14.00">Client_idx_3__0_9</text>
</g>
<!-- Client_idx_3__0_6&#45;&gt;Client_idx_3__0_9 -->
<g id="edge10" class="edge">
<title>Client_idx_3__0_6&#45;&gt;Client_idx_3__0_9</title>
<path fill="none" stroke="black" d="M621.98,-83.28C627.58,-74.42 634.71,-63.47 641.54,-54 643.69,-51.03 645.98,-47.98 648.31,-44.96"/>
<polygon fill="black" stroke="black" points="650.85,-47.39 654.3,-37.37 645.36,-43.05 650.85,-47.39"/>
<text text-anchor="middle" x="677.54" y="-55.75" font-family="Times,serif" font-size="10.00">scall_intro_put_..</text>
<text text-anchor="middle" x="590.37" y="-37.93" font-family="Times,serif" font-size="10.00">Store(&#39;udp&#39;, &lt;l_0_26, m_0_26&gt;)</text>
<text text-anchor="middle" x="545.48" y="-73.78" font-family="Times,serif" font-size="10.00">!ACP_(&lt;&#39;Client&#39;, param&gt;, &#39;udp&#39;, &#39;send&#39;)</text>
</g>
<!-- Client_idx_3__0_9&#45;&gt;Client_idx_3 -->
<g id="edge11" class="edge">
<title>Client_idx_3__0_9&#45;&gt;Client_idx_3</title>
<path fill="none" stroke="black" stroke-dasharray="5,2" d="M695.29,-35.25C702.01,-40.54 708.72,-46.89 713.54,-54 725.61,-71.77 727.54,-78.77 727.54,-100.25 727.54,-374.5 727.54,-374.5 727.54,-374.5 727.54,-417.86 683.05,-445.78 645.53,-461.6"/>
<polygon fill="black" stroke="black" points="644.56,-458.22 636.58,-465.18 647.16,-464.72 644.56,-458.22"/>
<text text-anchor="middle" x="742.92" y="-244.75" font-family="Times,serif" font-size="10.00">repeat;</text>
<text text-anchor="middle" x="742.92" y="-233.5" font-family="Times,serif" font-size="10.00">;</text>
<text text-anchor="middle" x="742.92" y="-222.25" font-family="Times,serif" font-size="10.00">Label:..</text>
</g>
<!-- Client_ta_idx_0 -->
<g id="node12" class="node">
<title>Client_ta_idx_0</title>
<ellipse fill="none" stroke="black" cx="978.54" cy="-668.25" rx="70.29" ry="18"/>
<text text-anchor="middle" x="978.54" y="-663.2" font-family="Times,serif" font-size="14.00">Client_ta_idx_0</text>
</g>
<!-- Client_ta_idx_1 -->
<g id="node13" class="node">
<title>Client_ta_idx_1</title>
<ellipse fill="none" stroke="black" cx="978.54" cy="-573.75" rx="70.29" ry="18"/>
<text text-anchor="middle" x="978.54" y="-568.7" font-family="Times,serif" font-size="14.00">Client_ta_idx_1</text>
</g>
<!-- Client_ta_idx_0&#45;&gt;Client_ta_idx_1 -->
<g id="edge12" class="edge">
<title>Client_ta_idx_0&#45;&gt;Client_ta_idx_1</title>
<path fill="none" stroke="black" d="M978.54,-649.85C978.54,-636.8 978.54,-618.65 978.54,-603.46"/>
<polygon fill="black" stroke="black" points="982.04,-603.58 978.54,-593.58 975.04,-603.58 982.04,-603.58"/>
<text text-anchor="middle" x="999.17" y="-622.75" font-family="Times,serif" font-size="10.00">repeat_in;</text>
<text text-anchor="middle" x="999.17" y="-611.5" font-family="Times,serif" font-size="10.00">retur..</text>
</g>
<!-- Client_ta_idx_2 -->
<g id="node14" class="node">
<title>Client_ta_idx_2</title>
<ellipse fill="none" stroke="black" cx="825.54" cy="-479.25" rx="70.29" ry="18"/>
<text text-anchor="middle" x="825.54" y="-474.2" font-family="Times,serif" font-size="14.00">Client_ta_idx_2</text>
</g>
<!-- Client_ta_idx_1&#45;&gt;Client_ta_idx_2 -->
<g id="edge13" class="edge">
<title>Client_ta_idx_1&#45;&gt;Client_ta_idx_2</title>
<path fill="none" stroke="black" d="M909.95,-569.21C885.57,-564.65 859.7,-555.52 841.54,-537.75 833.8,-530.17 829.71,-519.18 827.59,-508.83"/>
<polygon fill="black" stroke="black" points="831.08,-508.52 826.15,-499.14 824.15,-509.55 831.08,-508.52"/>
<text text-anchor="middle" x="880.54" y="-522.62" font-family="Times,serif" font-size="10.00">guarded_skip_rep..</text>
<text text-anchor="middle" x="809.45" y="-570.96" font-family="Times,serif" font-size="10.00">!ACP_(&lt;&#39;Client_ta&#39;, param&gt;, &#39;rpc&#39;, &#39;str:&#39;); Exit(&#39;rpc&#39;)</text>
</g>
<!-- Client_ta_idx_1__0_1 -->
<g id="node16" class="node">
<title>Client_ta_idx_1__0_1</title>
<ellipse fill="none" stroke="black" cx="1030.54" cy="-479.25" rx="93.32" ry="18"/>
<text text-anchor="middle" x="1030.54" y="-474.2" font-family="Times,serif" font-size="14.00">Client_ta_idx_1__0_1</text>
</g>
<!-- Client_ta_idx_1&#45;&gt;Client_ta_idx_1__0_1 -->
<g id="edge14" class="edge">
<title>Client_ta_idx_1&#45;&gt;Client_ta_idx_1__0_1</title>
<path fill="none" stroke="black" d="M946.11,-557.39C938.68,-552.24 931.75,-545.73 927.54,-537.75 922.89,-528.9 921.72,-523.38 927.54,-515.25 933.24,-507.3 940.84,-501.14 949.34,-496.36"/>
<polygon fill="black" stroke="black" points="950.83,-499.53 958.31,-492.03 947.79,-493.23 950.83,-499.53"/>
<text text-anchor="middle" x="968.04" y="-522.62" font-family="Times,serif" font-size="10.00">guarded_guarded_..</text>
<text text-anchor="middle" x="1037.3" y="-493.12" font-family="Times,serif" font-size="10.00">Returned(&#39;rpc&#39;, sign(n_0_1, priv_k_3))</text>
<text text-anchor="middle" x="1082.61" y="-547.89" font-family="Times,serif" font-size="10.00">!ACP_(&lt;&#39;Client_ta&#39;, param&gt;, &#39;rpc&#39;, &#39;str:&#39;); !Const(&#39;priv_k&#39;, priv_k_3); !ACP_(&lt;&#39;Client_ta&#39;, param&gt;, &#39;rpc&#39;, &#39;str:&#39;); Invoke(&#39;rpc&#39;, n_1_1, n_0_1)</text>
</g>
<!-- Client_ta_idx_1&#45;&gt;Client_ta_idx_1__0_1 -->
<g id="edge15" class="edge">
<title>Client_ta_idx_1&#45;&gt;Client_ta_idx_1__0_1</title>
<path fill="none" stroke="black" d="M995.07,-555.85C999.84,-550.38 1004.78,-544.08 1008.54,-537.75 1013.97,-528.64 1018.49,-517.96 1022,-508.29"/>
<polygon fill="black" stroke="black" points="1025.25,-509.59 1025.15,-498.99 1018.63,-507.34 1025.25,-509.59"/>
<text text-anchor="middle" x="1059.35" y="-522.62" font-family="Times,serif" font-size="10.00">guarded_guarded_..</text>
<text text-anchor="middle" x="1131.94" y="-557.6" font-family="Times,serif" font-size="10.00">!ACP_(&lt;&#39;Client_ta&#39;, param&gt;, &#39;rpc&#39;, &#39;str:&#39;); Invoke(&#39;rpc&#39;, n_1_1, n_0_1)</text>
</g>
<!-- Client_ta_idx_3 -->
<g id="node15" class="node">
<title>Client_ta_idx_3</title>
<ellipse fill="none" stroke="black" cx="825.54" cy="-373.5" rx="70.29" ry="18"/>
<text text-anchor="middle" x="825.54" y="-368.45" font-family="Times,serif" font-size="14.00">Client_ta_idx_3</text>
</g>
<!-- Client_ta_idx_2&#45;&gt;Client_ta_idx_3 -->
<g id="edge16" class="edge">
<title>Client_ta_idx_2&#45;&gt;Client_ta_idx_3</title>
<path fill="none" stroke="black" d="M825.54,-461.12C825.54,-445.35 825.54,-421.65 825.54,-403.03"/>
<polygon fill="black" stroke="black" points="829.04,-403.17 825.54,-393.17 822.04,-403.17 829.04,-403.17"/>
<text text-anchor="middle" x="843.17" y="-428.12" font-family="Times,serif" font-size="10.00">event;</text>
<text text-anchor="middle" x="843.17" y="-416.88" font-family="Times,serif" font-size="10.00">return &#39;(..</text>
</g>
<!-- Client_ta_idx_1__0_1&#45;&gt;Client_ta_idx_1 -->
<g id="edge17" class="edge">
<title>Client_ta_idx_1__0_1&#45;&gt;Client_ta_idx_1</title>
<path fill="none" stroke="black" stroke-dasharray="5,2" d="M1080.37,-494.82C1089.57,-499.81 1098,-506.45 1103.54,-515.25 1108.87,-523.71 1109.59,-529.78 1103.54,-537.75 1096.16,-547.49 1072.6,-555.25 1047.89,-560.98"/>
<polygon fill="black" stroke="black" points="1047.4,-557.5 1038.38,-563.06 1048.89,-564.34 1047.4,-557.5"/>
<text text-anchor="middle" x="1129.56" y="-528.25" font-family="Times,serif" font-size="10.00">repeat;</text>
<text text-anchor="middle" x="1129.56" y="-517" font-family="Times,serif" font-size="10.00">popMeta ..</text>
</g>
<!-- Server_idx_0 -->
<g id="node17" class="node">
<title>Server_idx_0</title>
<ellipse fill="none" stroke="black" cx="1503.54" cy="-668.25" rx="60.56" ry="18"/>
<text text-anchor="middle" x="1503.54" y="-663.2" font-family="Times,serif" font-size="14.00">Server_idx_0</text>
</g>
<!-- Server_idx_1 -->
<g id="node18" class="node">
<title>Server_idx_1</title>
<ellipse fill="none" stroke="black" cx="1503.54" cy="-573.75" rx="60.56" ry="18"/>
<text text-anchor="middle" x="1503.54" y="-568.7" font-family="Times,serif" font-size="14.00">Server_idx_1</text>
</g>
<!-- Server_idx_0&#45;&gt;Server_idx_1 -->
<g id="edge18" class="edge">
<title>Server_idx_0&#45;&gt;Server_idx_1</title>
<path fill="none" stroke="black" d="M1503.54,-649.85C1503.54,-636.8 1503.54,-618.65 1503.54,-603.46"/>
<polygon fill="black" stroke="black" points="1507.04,-603.58 1503.54,-593.58 1500.04,-603.58 1507.04,-603.58"/>
<text text-anchor="middle" x="1524.17" y="-622.75" font-family="Times,serif" font-size="10.00">repeat_in;</text>
<text text-anchor="middle" x="1524.17" y="-611.5" font-family="Times,serif" font-size="10.00">retur..</text>
</g>
<!-- Server_idx_2 -->
<g id="node19" class="node">
<title>Server_idx_2</title>
<ellipse fill="none" stroke="black" cx="1202.54" cy="-479.25" rx="60.56" ry="18"/>
<text text-anchor="middle" x="1202.54" y="-474.2" font-family="Times,serif" font-size="14.00">Server_idx_2</text>
</g>
<!-- Server_idx_1&#45;&gt;Server_idx_2 -->
<g id="edge19" class="edge">
<title>Server_idx_1&#45;&gt;Server_idx_2</title>
<path fill="none" stroke="black" d="M1453.46,-563.34C1423.1,-557.15 1383.75,-548.26 1349.54,-537.75 1314.01,-526.83 1274.85,-511.33 1245.89,-499.18"/>
<polygon fill="black" stroke="black" points="1247.29,-495.97 1236.72,-495.29 1244.56,-502.42 1247.29,-495.97"/>
<text text-anchor="middle" x="1388.54" y="-522.62" font-family="Times,serif" font-size="10.00">guarded_skip_rep..</text>
<text text-anchor="middle" x="1439.96" y="-553.84" font-family="Times,serif" font-size="10.00">False()</text>
</g>
<!-- Server_idx_1__0_1__0_0 -->
<g id="node20" class="node">
<title>Server_idx_1__0_1__0_0</title>
<ellipse fill="none" stroke="black" cx="1387.54" cy="-479.25" rx="106.63" ry="18"/>
<text text-anchor="middle" x="1387.54" y="-474.2" font-family="Times,serif" font-size="14.00">Server_idx_1__0_1__0_0</text>
</g>
<!-- Server_idx_1&#45;&gt;Server_idx_1__0_1__0_0 -->
<g id="edge20" class="edge">
<title>Server_idx_1&#45;&gt;Server_idx_1__0_1__0_0</title>
<path fill="none" stroke="black" d="M1483.07,-556.43C1465.02,-542.03 1438.48,-520.86 1417.95,-504.49"/>
<polygon fill="black" stroke="black" points="1420.17,-501.79 1410.17,-498.29 1415.81,-507.27 1420.17,-501.79"/>
<text text-anchor="middle" x="1495.72" y="-522.62" font-family="Times,serif" font-size="10.00">guarded_let_intr..</text>
</g>
<!-- Server_idx_1__0_1__1_0 -->
<g id="node23" class="node">
<title>Server_idx_1__0_1__1_0</title>
<ellipse fill="none" stroke="black" cx="1618.54" cy="-479.25" rx="106.63" ry="18"/>
<text text-anchor="middle" x="1618.54" y="-474.2" font-family="Times,serif" font-size="14.00">Server_idx_1__0_1__1_0</text>
</g>
<!-- Server_idx_1&#45;&gt;Server_idx_1__0_1__1_0 -->
<g id="edge21" class="edge">
<title>Server_idx_1&#45;&gt;Server_idx_1__0_1__1_0</title>
<path fill="none" stroke="black" d="M1523.84,-556.43C1541.73,-542.03 1568.05,-520.86 1588.4,-504.49"/>
<polygon fill="black" stroke="black" points="1590.51,-507.29 1596.11,-498.3 1586.12,-501.84 1590.51,-507.29"/>
<text text-anchor="middle" x="1611.1" y="-522.62" font-family="Times,serif" font-size="10.00">guarded_let_intr..</text>
</g>
<!-- Server_idx_1__0_2 -->
<g id="node21" class="node">
<title>Server_idx_1__0_2</title>
<ellipse fill="none" stroke="black" cx="1582.54" cy="-373.5" rx="83.6" ry="18"/>
<text text-anchor="middle" x="1582.54" y="-368.45" font-family="Times,serif" font-size="14.00">Server_idx_1__0_2</text>
</g>
<!-- Server_idx_1__0_1__0_0&#45;&gt;Server_idx_1__0_2 -->
<g id="edge22" class="edge">
<title>Server_idx_1__0_1__0_0&#45;&gt;Server_idx_1__0_2</title>
<path fill="none" stroke="black" d="M1418.13,-461.58C1443.91,-447.57 1481.81,-427.08 1515.04,-409.5 1523.52,-405.02 1532.61,-400.27 1541.29,-395.75"/>
<polygon fill="black" stroke="black" points="1542.63,-399.01 1549.89,-391.3 1539.4,-392.79 1542.63,-399.01"/>
<text text-anchor="middle" x="1553.29" y="-422.5" font-family="Times,serif" font-size="10.00">guarded_return_c..</text>
<text text-anchor="middle" x="1296.25" y="-452.08" font-family="Times,serif" font-size="10.00">!ACP_(&lt;&#39;Server&#39;, param&gt;, l_0_9, &#39;recv&#39;); Store(l_0_9, n_0_9)</text>
</g>
<!-- Server_idx_1__0_6 -->
<g id="node22" class="node">
<title>Server_idx_1__0_6</title>
<ellipse fill="none" stroke="black" cx="1665.54" cy="-290.25" rx="83.6" ry="18"/>
<text text-anchor="middle" x="1665.54" y="-285.2" font-family="Times,serif" font-size="14.00">Server_idx_1__0_6</text>
</g>
<!-- Server_idx_1__0_2&#45;&gt;Server_idx_1__0_6 -->
<g id="edge23" class="edge">
<title>Server_idx_1__0_2&#45;&gt;Server_idx_1__0_6</title>
<path fill="none" stroke="black" d="M1571.92,-355.46C1567.58,-346.15 1564.83,-334.82 1570.79,-326.25 1576.34,-318.29 1583.92,-312.13 1592.39,-307.37"/>
<polygon fill="black" stroke="black" points="1593.83,-310.56 1601.31,-303.06 1590.79,-304.26 1593.83,-310.56"/>
<text text-anchor="middle" x="1607.17" y="-328" font-family="Times,serif" font-size="10.00">let_intro_guarde..</text>
<text text-anchor="middle" x="1517.54" y="-345.96" font-family="Times,serif" font-size="10.00">!Const(&#39;pub_k&#39;, pub_k_13)</text>
</g>
<!-- Server_idx_1__0_2&#45;&gt;Server_idx_1__0_6 -->
<g id="edge24" class="edge">
<title>Server_idx_1__0_2&#45;&gt;Server_idx_1__0_6</title>
<path fill="none" stroke="black" d="M1618.08,-356.89C1627.19,-351.68 1636.41,-345.2 1643.54,-337.5 1648.54,-332.11 1652.6,-325.37 1655.82,-318.72"/>
<polygon fill="black" stroke="black" points="1658.85,-320.52 1659.58,-309.95 1652.42,-317.76 1658.85,-320.52"/>
<text text-anchor="middle" x="1688.15" y="-328" font-family="Times,serif" font-size="10.00">let_intro_guarde..</text>
<text text-anchor="middle" x="1672.46" y="-347.39" font-family="Times,serif" font-size="10.00">!Const(&#39;pub_k&#39;, pub_k_13)</text>
</g>
<!-- Server_idx_1__0_6&#45;&gt;Server_idx_1 -->
<g id="edge25" class="edge">
<title>Server_idx_1__0_6&#45;&gt;Server_idx_1</title>
<path fill="none" stroke="black" stroke-dasharray="5,2" d="M1706.79,-306.25C1715.35,-311.29 1723.34,-317.84 1728.54,-326.25 1789.38,-424.57 1753.07,-467.6 1734.54,-497.25 1716.37,-526.35 1628.06,-548.94 1566.06,-561.56"/>
<polygon fill="black" stroke="black" points="1565.43,-558.12 1556.3,-563.5 1566.79,-564.98 1565.43,-558.12"/>
<text text-anchor="middle" x="1777.68" y="-433.75" font-family="Times,serif" font-size="10.00">repeat;</text>
<text text-anchor="middle" x="1777.68" y="-422.5" font-family="Times,serif" font-size="10.00">;</text>
<text text-anchor="middle" x="1777.68" y="-411.25" font-family="Times,serif" font-size="10.00">Label:..</text>
</g>
<!-- Server_idx_1__0_1__1_0&#45;&gt;Server_idx_1__0_2 -->
<g id="edge26" class="edge">
<title>Server_idx_1__0_1__1_0&#45;&gt;Server_idx_1__0_2</title>
<path fill="none" stroke="black" d="M1612.6,-461.12C1607.08,-445.2 1598.75,-421.2 1592.26,-402.5"/>
<polygon fill="black" stroke="black" points="1595.58,-401.39 1588.99,-393.09 1588.97,-403.68 1595.58,-401.39"/>
<text text-anchor="middle" x="1644.12" y="-422.5" font-family="Times,serif" font-size="10.00">guarded_return_c..</text>
<text text-anchor="middle" x="1757.35" y="-451.62" font-family="Times,serif" font-size="10.00">!ACP_(&lt;&#39;Server&#39;, param&gt;, l_0_4, &#39;recv&#39;); In(n_1_4); Store(l_0_4, n_0_4)</text>
</g>
</g>
</svg>
